<svg id="Layer_1" data-name="Layer 1" xmlns="http://www.w3.org/2000/svg" xmlns:xlink="http://www.w3.org/1999/xlink" viewBox="0 0 461.99 450.13"><defs><style>.cls-1{fill:none;}.cls-2{clip-path:url(#clip-path);}.cls-3{clip-path:url(#clip-path-2);}.cls-4{fill:#f0efee;}.cls-5{fill:#d8d9d9;}.cls-6{fill:#e5e5e4;}.cls-7{fill:#00b2a7;}.cls-8{fill:#fff;}.cls-9{fill:#25434c;}.cls-10{fill:#0b2b34;}.cls-11{fill:#345863;}.cls-12{fill:#4ac1c0;}.cls-13{fill:#eaeae9;}.cls-14{fill:#7a8c90;}.cls-15{fill:#80979e;}.cls-16{fill:#00ae9d;}.cls-17{fill:#00222b;}.cls-18{fill:#00afa1;}.cls-19{fill:#00a990;}.cls-20{fill:#00ad9a;}.cls-21{fill:#00ac97;}.cls-22{fill:#009c86;}.cls-23{fill:#00aa93;}.cls-24{fill:#c2686a;}.cls-25{fill:#004136;}.cls-26{fill:#ac4d52;}</style><clipPath id="clip-path" transform="translate(-24.73 -9.68)"><rect class="cls-1" width="513.98" height="483.87"/></clipPath><clipPath id="clip-path-2" transform="translate(-24.73 -9.68)"><rect class="cls-1" x="24.73" y="9.68" width="461.99" height="450.13"/></clipPath></defs><g class="cls-2"><g class="cls-3"><path class="cls-4" d="M92.39,419.88c90.21,53.24,236.47,53.24,326.67,0s90.21-139.55,0-192.79-236.46-53.24-326.67,0-90.21,139.55,0,192.78" transform="translate(-24.73 -9.68)"/></g><path class="cls-5" d="M426.33,365.17c17.26,10,17.26,26.12,0,36.08s-45.24,10-62.5,0-17.25-26.12,0-36.08,45.24-10,62.5,0Z" transform="translate(-24.73 -9.68)"/><path class="cls-6" d="M367.36,54.81,375,59.24a9,9,0,0,1-.06-1V56c0-4,2.77-5.56,6.2-3.58A12.05,12.05,0,0,1,384.86,56c.56-5,4.46-6.82,9.2-4.08,5.12,3,9.27,10.14,9.27,16.06v3.32a8.79,8.79,0,0,1-.78,3.85l6.37,3.68a7.6,7.6,0,0,1,3.44,6c0,2.19-1.54,3.08-3.44,2l-41.56-24a7.6,7.6,0,0,1-3.44-6c0-2.19,1.54-3.08,3.44-2Z" transform="translate(-24.73 -9.68)"/><path class="cls-6" d="M334.55,77.15l5.78,3.34c0-.26-.05-.51-.05-.76V78.05c0-3,2.1-4.19,4.68-2.7A9,9,0,0,1,347.75,78c.43-3.75,3.37-5.15,6.94-3.08a15.46,15.46,0,0,1,7,12.12v2.51a6.56,6.56,0,0,1-.59,2.9l4.81,2.78a5.74,5.74,0,0,1,2.59,4.49c0,1.66-1.16,2.33-2.59,1.5l-31.36-18.1a5.73,5.73,0,0,1-2.6-4.5c0-1.65,1.16-2.33,2.6-1.5Z" transform="translate(-24.73 -9.68)"/><path class="cls-7" d="M77.82,266.29c-.57.31-11,3.28-14.9-1.84s2.56-13.09-1.08-16-13.81,0-16.26-6.17,4.81-8.85.73-15.08c-2.57-3.92-8.89-6.12-9.44-9.75-.93-6.06,9.12-8.85,17.71-3.12S68.37,217.4,71.1,217s8.6.47,8.42,10-1.7,39.24-1.7,39.24Z" transform="translate(-24.73 -9.68)"/><path class="cls-8" d="M78.51,252.68a.57.57,0,0,1-.56-.48C75,234,53.84,219.25,42.86,216.08a.57.57,0,1,1,.32-1.09C54.4,218.23,76,233.38,79.07,252a.57.57,0,0,1-.47.65Z" transform="translate(-24.73 -9.68)"/><path class="cls-8" d="M53.61,237.48a.58.58,0,0,1-.49-.28.57.57,0,0,1,.2-.78c.34-.21,8.47-5,16.47-2.73a.56.56,0,0,1,.4.7.56.56,0,0,1-.7.39C62,232.69,54,237.35,53.9,237.4a.6.6,0,0,1-.29.08Z" transform="translate(-24.73 -9.68)"/><path class="cls-9" d="M81.87,273.27a9.29,9.29,0,0,0,4.33,7.19l121.33,70.05a9.57,9.57,0,0,0,8.66,0l166-95.85a8.13,8.13,0,0,0,0-14.38l-121.33-70a9.51,9.51,0,0,0-8.66,0l-166,95.84a9.29,9.29,0,0,0-4.33,7.19" transform="translate(-24.73 -9.68)"/><g class="cls-3"><path class="cls-10" d="M211.86,342.17v9.37a8.83,8.83,0,0,1-4.33-1L86.2,280.46a8.11,8.11,0,0,1-.44-14.1c-1.94,1.39-1.79,3.43.44,4.72l121.33,70.05a8.83,8.83,0,0,0,4.33,1Z" transform="translate(-24.73 -9.68)"/><path class="cls-11" d="M77.81,266.23a9.28,9.28,0,0,1-4.06-7.34V114.1a9.59,9.59,0,0,1,4.33-7.5l166-95.84a9.27,9.27,0,0,1,8.39-.15A9.28,9.28,0,0,1,256.54,18V162.74a9.59,9.59,0,0,1-4.33,7.5l-166,95.84a9.27,9.27,0,0,1-8.39.15" transform="translate(-24.73 -9.68)"/></g><path class="cls-10" d="M85.69,266.34a9.3,9.3,0,0,1-7.88-.11,9.28,9.28,0,0,1-4.06-7.34V114.1A8.74,8.74,0,0,1,75,109.84l8.12,4.68h0a8.88,8.88,0,0,0-1.27,4.26V263.58c0,2.56,1.67,3.71,3.82,2.76Z" transform="translate(-24.73 -9.68)"/><path class="cls-9" d="M81.87,118.79V263.58c0,2.76,1.94,3.88,4.33,2.5l166-95.84a9.59,9.59,0,0,0,4.33-7.5V18c0-2.76-1.94-3.88-4.33-2.5l-166,95.84a9.59,9.59,0,0,0-4.33,7.5" transform="translate(-24.73 -9.68)"/><path class="cls-11" d="M86.2,271.08l121.33,70.05a9.57,9.57,0,0,0,8.66,0l166-95.85c2.39-1.38,2.39-3.62,0-5l-121.33-70a9.51,9.51,0,0,0-8.66,0l-166,95.84c-2.39,1.38-2.39,3.62,0,5" transform="translate(-24.73 -9.68)"/><path class="cls-8" d="M88.53,119.33,248.58,27c1.44-.83,2.6-.16,2.6,1.5V153.78a5.73,5.73,0,0,1-2.6,4.5l-160,92.38c-1.43.83-2.6.16-2.6-1.5V123.83a5.76,5.76,0,0,1,2.6-4.5" transform="translate(-24.73 -9.68)"/><path class="cls-12" d="M87.37,251c-.85,0-1.44-.68-1.44-1.86V123.83a5.76,5.76,0,0,1,2.6-4.5L248.58,27a2.41,2.41,0,0,1,1.17-.36c.85,0,1.43.68,1.43,1.86V153.78a5.73,5.73,0,0,1-2.6,4.5l-160,92.38a2.38,2.38,0,0,1-1.16.36" transform="translate(-24.73 -9.68)"/><path class="cls-13" d="M168.22,111.41c4.26-2.47,7.71-.47,7.71,4.45a17,17,0,0,1-7.71,13.36c-4.26,2.46-7.72.47-7.72-4.45a17.06,17.06,0,0,1,7.72-13.36Z" transform="translate(-24.73 -9.68)"/><path class="cls-13" d="M183.42,137.72c0-8.08-5.67-11.67-12.67-7.63l-4.38,2.53c-7,4-12.68,13.87-12.68,21.95v2.18l29.73-17.15v-1.88Z" transform="translate(-24.73 -9.68)"/><path class="cls-13" d="M198.46,141.71c-.29-.65-1-.81-1.82-.35l-51.92,30a3.81,3.81,0,0,0-1.35,1.43,3.92,3.92,0,0,0-.56,1.9v6.1c0,1,.62,1.55,1.46,1.32l.13,0a2.37,2.37,0,0,0,.32-.15l51.92-30a4.24,4.24,0,0,0,1.92-3.33v-6.1a2.71,2.71,0,0,0-.1-.77Z" transform="translate(-24.73 -9.68)"/><path class="cls-7" d="M149.42,172.08c1-.59,1.82-.11,1.82,1a4.05,4.05,0,0,1-1.82,3.16c-1,.58-1.83.11-1.83-1.06a4,4,0,0,1,1.83-3.15Z" transform="translate(-24.73 -9.68)"/><path class="cls-7" d="M155.45,168.59c1-.58,1.82-.11,1.82,1.06a4,4,0,0,1-1.82,3.15c-1,.59-1.82.12-1.82-1.05a4,4,0,0,1,1.82-3.16Z" transform="translate(-24.73 -9.68)"/><path class="cls-7" d="M161.48,165.11c1-.58,1.83-.11,1.83,1a4,4,0,0,1-1.83,3.16c-1,.58-1.82.11-1.82-1a4.05,4.05,0,0,1,1.82-3.16Z" transform="translate(-24.73 -9.68)"/><path class="cls-7" d="M167.52,161.63c1-.58,1.82-.11,1.82,1.05a4.05,4.05,0,0,1-1.82,3.16c-1,.58-1.83.11-1.83-1.05a4,4,0,0,1,1.83-3.16Z" transform="translate(-24.73 -9.68)"/><path class="cls-7" d="M173.55,158.14c1-.58,1.82-.11,1.82,1.06a4,4,0,0,1-1.82,3.16c-1,.58-1.83.11-1.83-1.06a4.05,4.05,0,0,1,1.83-3.16Z" transform="translate(-24.73 -9.68)"/><path class="cls-7" d="M179.58,154.66c1-.58,1.82-.11,1.82,1.05a4,4,0,0,1-1.82,3.16c-1,.58-1.82.11-1.82-1.05a4,4,0,0,1,1.82-3.16Z" transform="translate(-24.73 -9.68)"/><path class="cls-7" d="M185.61,151.18c1-.58,1.83-.11,1.83,1a4,4,0,0,1-1.83,3.16c-1,.58-1.82.11-1.82-1a4,4,0,0,1,1.82-3.16Z" transform="translate(-24.73 -9.68)"/><path class="cls-7" d="M191.65,147.69c1-.58,1.82-.11,1.82,1.06a4.07,4.07,0,0,1-1.82,3.16c-1,.58-1.83.11-1.83-1.06a4.05,4.05,0,0,1,1.83-3.16Z" transform="translate(-24.73 -9.68)"/><path class="cls-9" d="M100.29,267.33l154.09-89a4.79,4.79,0,0,1,4.33,0l7.88,4.55a1.32,1.32,0,0,1,0,2.5l-154.12,89a4.79,4.79,0,0,1-4.33,0l-7.85-4.54a1.32,1.32,0,0,1,0-2.5" transform="translate(-24.73 -9.68)"/><path class="cls-10" d="M120.6,279.06l154.09-89a4.79,4.79,0,0,1,4.33,0l48.47,28a1.32,1.32,0,0,1,0,2.5L173.58,309.42a4.79,4.79,0,0,1-4.33,0L120.6,281.55a1.31,1.31,0,0,1,0-2.49" transform="translate(-24.73 -9.68)"/><path class="cls-11" d="M203.5,241.17a.84.84,0,0,0,.77,0l4.82-2.79c.21-.12.2-.32,0-.44l-5.57-3.22a.84.84,0,0,0-.77,0l-4.83,2.79c-.2.11-.19.31,0,.44l5.58,3.22m57.4-35.51a.84.84,0,0,0,.77,0l4.83-2.79c.2-.11.19-.31,0-.44l-1.48-.86a.87.87,0,0,0-.77,0l-4.83,2.78c-.2.12-.19.32,0,.45l1.48.85m43.45,16.52,4.83-2.79c.2-.12.19-.31,0-.44l-5.58-3.22a.84.84,0,0,0-.77,0L298,218.5c-.21.12-.19.31,0,.44l5.57,3.22a.84.84,0,0,0,.77,0m-17.62-17.89a.84.84,0,0,0,.77,0l4.82-2.78c.21-.12.19-.32,0-.45l-5.58-3.22a.87.87,0,0,0-.77,0l-4.82,2.78c-.2.12-.19.32,0,.45l5.58,3.22M275,197.52a.84.84,0,0,0,.77,0l4.82-2.79c.21-.12.19-.31,0-.44l-1.48-.86a.84.84,0,0,0-.77,0l-4.83,2.78c-.2.12-.19.32,0,.44l1.49.86m-21.16,12.22a.87.87,0,0,0,.77,0l4.83-2.79c.2-.11.19-.31,0-.44l-1.48-.86a.87.87,0,0,0-.77,0l-4.83,2.78c-.2.12-.19.32,0,.45l1.48.86M217.6,233a.84.84,0,0,0,.77,0l4.82-2.78c.21-.12.2-.32,0-.44l-5.58-3.23a.87.87,0,0,0-.77,0L212,229.36c-.2.12-.19.32,0,.45L217.6,233m-7,4.07a.87.87,0,0,0,.77,0l4.82-2.79c.21-.12.2-.32,0-.44l-5.58-3.22a.84.84,0,0,0-.77,0l-4.83,2.79c-.2.11-.19.31,0,.44l5.58,3.22m29.76-17.18a.87.87,0,0,0,.77,0l4.83-2.78c.2-.12.19-.32,0-.45l-5.58-3.22a.84.84,0,0,0-.77,0l-4.82,2.78c-.21.12-.2.32,0,.45l5.58,3.22m-15.66,9a.87.87,0,0,0,.77,0l4.83-2.78c.2-.12.19-.32,0-.45l-5.58-3.22a.87.87,0,0,0-.77,0l-4.82,2.78c-.21.12-.2.32,0,.45l5.58,3.22m22.71-13.12a.84.84,0,0,0,.77,0l4.83-2.78c.2-.12.19-.32,0-.45l-5.58-3.22a.87.87,0,0,0-.77,0l-4.82,2.79c-.21.12-.19.32,0,.44l5.57,3.22M233.26,224a.87.87,0,0,0,.77,0l4.83-2.78c.2-.12.19-.32,0-.45l-5.58-3.22a.84.84,0,0,0-.77,0l-4.82,2.78c-.21.12-.2.32,0,.45l5.58,3.22m34.7-22.4a.84.84,0,0,0,.77,0l4.82-2.79c.21-.11.19-.31,0-.44l-1.48-.86a.84.84,0,0,0-.77,0l-4.83,2.78c-.2.12-.19.32,0,.45l1.49.85M235.7,261.82l4.82-2.79c.21-.12.19-.31,0-.44l-5.58-3.22a.84.84,0,0,0-.77,0l-4.82,2.79c-.2.11-.19.31,0,.44l5.58,3.22a.84.84,0,0,0,.77,0M221.59,270l4.83-2.79c.2-.11.19-.31,0-.44l-5.58-3.22a.87.87,0,0,0-.77,0l-4.82,2.79c-.21.12-.19.32,0,.44l5.57,3.22a.84.84,0,0,0,.77,0m7-4.07,4.83-2.79c.2-.11.19-.31,0-.44l-5.58-3.22a.84.84,0,0,0-.77,0l-4.82,2.79c-.21.12-.19.31,0,.44l5.57,3.22a.84.84,0,0,0,.77,0m-28.2,16.28,4.82-2.78c.21-.12.2-.32,0-.45l-5.58-3.22a.87.87,0,0,0-.77,0l-4.83,2.78c-.2.12-.19.32,0,.45l5.58,3.22a.87.87,0,0,0,.77,0m14.1-8.14,4.83-2.78c.2-.12.19-.32,0-.45l-5.58-3.22a.87.87,0,0,0-.77,0l-4.82,2.79c-.21.12-.2.32,0,.44l5.58,3.23a.87.87,0,0,0,.77,0m-7,4.07,4.83-2.78c.2-.12.19-.32,0-.45l-5.58-3.22a.84.84,0,0,0-.77,0l-4.82,2.78c-.21.12-.2.32,0,.45l5.58,3.22a.87.87,0,0,0,.77,0m66.4-38.8a.84.84,0,0,0,.77,0l4.83-2.79c.2-.11.19-.31,0-.44l-5.58-3.22a.87.87,0,0,0-.77,0l-4.82,2.79c-.21.12-.19.32,0,.44l5.57,3.22m-31.14,18.45,4.82-2.79c.21-.12.19-.32,0-.44L242,251.3a.84.84,0,0,0-.77,0l-4.83,2.79c-.2.11-.19.31,0,.44l5.58,3.22a.84.84,0,0,0,.77,0m39.53-32,4.83-2.79c.2-.11.19-.31,0-.44l-5.58-3.22a.84.84,0,0,0-.77,0L275.91,222c-.21.12-.2.32,0,.44l5.58,3.22a.84.84,0,0,0,.77,0m7.2,4.59a.87.87,0,0,0,.77,0l4.83-2.78c.2-.12.19-.32,0-.45l-5.58-3.22a.87.87,0,0,0-.77,0l-4.82,2.79c-.21.12-.2.32,0,.44l5.58,3.23M249.8,253.68l14.1-8.15c.21-.11.19-.31,0-.44l-5.57-3.22a.84.84,0,0,0-.77,0L243.42,250c-.2.11-.19.31,0,.44l5.58,3.22a.87.87,0,0,0,.77,0m16-27.63,4.82-2.79c.21-.12.19-.32,0-.44L265,219.6a.82.82,0,0,0-.76,0l-4.83,2.79c-.21.11-.19.31,0,.44L265,226a.84.84,0,0,0,.77,0m31.52.2,4.83-2.79c.2-.11.19-.31,0-.44l-5.58-3.22a.87.87,0,0,0-.77,0l-4.82,2.79c-.21.12-.2.32,0,.44l5.58,3.22a.84.84,0,0,0,.77,0m-15.45,11.22a.87.87,0,0,0-.77,0l-4.82,2.79c-.21.12-.2.32,0,.44l5.57,3.23a.87.87,0,0,0,.77,0l4.83-2.78c.2-.12.19-.32,0-.45l-5.58-3.22M256.62,252a.87.87,0,0,0-.77,0l-5.94,3.43c-.21.12-.19.32,0,.45l5.58,3.22a.82.82,0,0,0,.76,0l5.94-3.42c.21-.12.19-.32,0-.45L256.62,252M182,295.11a.84.84,0,0,0-.77,0l-5.94,3.43c-.2.12-.19.32,0,.45l5.58,3.22a.87.87,0,0,0,.77,0l5.94-3.43c.2-.11.19-.31,0-.44L182,295.11m58.27-33.64a.84.84,0,0,0-.77,0l-5.94,3.43c-.21.12-.19.32,0,.45l5.58,3.22a.87.87,0,0,0,.77,0l5.93-3.43c.21-.11.2-.31,0-.44l-5.57-3.22m-50.1,28.92a.87.87,0,0,0-.77,0l-5.94,3.43c-.21.11-.19.31,0,.44l5.57,3.22a.84.84,0,0,0,.77,0l5.94-3.43c.21-.12.19-.32,0-.44l-5.57-3.23m41.93-24.21a.87.87,0,0,0-.77,0l-39.71,22.92c-.2.12-.19.32,0,.45l5.58,3.22a.84.84,0,0,0,.77,0l39.71-22.92c.2-.12.19-.32,0-.45l-5.58-3.22m34.15-19.71a.87.87,0,0,0-.77,0l-7.43,4.29c-.2.12-.19.32,0,.44l5.58,3.22a.84.84,0,0,0,.77,0l7.42-4.29c.21-.11.19-.31,0-.44l-5.57-3.22m-17.82,10.28a.87.87,0,0,0-.77,0l-5.94,3.43c-.2.12-.19.31,0,.44l5.58,3.22a.84.84,0,0,0,.77,0l5.94-3.43c.2-.12.19-.32,0-.44l-5.58-3.23m75.72-37.27-13.55-7.82a.84.84,0,0,0-.77,0L305,214.43c-.21.11-.19.31,0,.44l13.54,7.82a.84.84,0,0,0,.77,0l4.83-2.79c.2-.11.19-.31,0-.44m-12.63.85a.84.84,0,0,0-.77,0L306,223.1c-.21.12-.2.32,0,.44l5.57,3.22a.84.84,0,0,0,.77,0l4.83-2.79c.2-.11.19-.31,0-.44l-5.58-3.22M274.8,241.54a.84.84,0,0,0-.77,0l-4.82,2.78c-.21.12-.2.32,0,.45l5.58,3.22a.87.87,0,0,0,.77,0l4.83-2.78c.2-.12.19-.32,0-.45l-5.58-3.22m-81.41,44.7,4.82-2.78c.21-.12.2-.32,0-.45l-5.58-3.22a.87.87,0,0,0-.77,0L187,282.56c-.2.12-.19.32,0,.45l5.58,3.22a.84.84,0,0,0,.77,0M288.9,233.4a.87.87,0,0,0-.77,0l-4.82,2.79c-.21.12-.19.32,0,.44l5.58,3.22a.84.84,0,0,0,.77,0l4.82-2.79c.2-.11.19-.31,0-.44l-5.58-3.22m15.59-9a.87.87,0,0,0-.77,0l-11.87,6.86c-.21.12-.2.32,0,.45l5.58,3.22a.87.87,0,0,0,.77,0l11.88-6.85c.2-.12.19-.32,0-.45l-5.58-3.22M155.05,269.14a.87.87,0,0,0,.77,0l4.83-2.79c.2-.12.19-.32,0-.44L155,262.71a.84.84,0,0,0-.77,0l-4.82,2.79c-.21.11-.19.31,0,.44l5.57,3.22m7.06-4.07a.82.82,0,0,0,.76,0l4.83-2.78c.2-.12.19-.32,0-.44l-5.58-3.23a.87.87,0,0,0-.77,0l-4.82,2.78c-.21.12-.19.32,0,.45l5.58,3.22m11.75,34.75a.87.87,0,0,0-.77,0l-7.43,4.28c-.2.12-.19.32,0,.45l5.58,3.22a.87.87,0,0,0,.77,0l7.42-4.28c.21-.12.19-.32,0-.45l-5.57-3.22m-1.64-40.59a.87.87,0,0,0,.77,0l4.83-2.78c.2-.12.19-.32,0-.45l-5.58-3.22a.87.87,0,0,0-.77,0l-4.82,2.78c-.21.12-.19.32,0,.45l5.57,3.22m14.11-8.15a.84.84,0,0,0,.77,0l4.82-2.79c.21-.11.19-.31,0-.44l-5.57-3.22a.87.87,0,0,0-.77,0l-4.83,2.79c-.2.12-.19.32,0,.44l5.58,3.22M148,273.21a.84.84,0,0,0,.77,0l4.83-2.79c.2-.12.19-.32,0-.44L148,266.78a.84.84,0,0,0-.77,0l-4.82,2.79c-.21.11-.2.31,0,.44l5.58,3.22m31.28-18a.87.87,0,0,0,.77,0l4.82-2.78c.21-.12.19-.32,0-.45l-5.58-3.22a.84.84,0,0,0-.77,0l-4.82,2.78c-.21.12-.19.32,0,.45l5.58,3.22m14.1-8.15a.84.84,0,0,0,.77,0l4.82-2.79c.21-.11.2-.31,0-.44l-5.58-3.22a.84.84,0,0,0-.77,0l-4.83,2.79c-.2.12-.19.32,0,.44l5.58,3.22M170,299.3l-5.58-3.22a.84.84,0,0,0-.77,0l-5.94,3.43c-.2.12-.19.32,0,.44l5.58,3.23a.87.87,0,0,0,.77,0l5.94-3.43c.2-.12.19-.31,0-.44m-4.63-6.53-5.58-3.22a.84.84,0,0,0-.77,0l-9.28,5.36c-.2.12-.19.32,0,.44l5.58,3.22a.84.84,0,0,0,.77,0l9.28-5.36c.2-.11.19-.31,0-.44M141,277.28a.84.84,0,0,0,.77,0l4.83-2.79c.2-.12.19-.31,0-.44l-5.58-3.22a.84.84,0,0,0-.77,0l-4.82,2.79c-.21.12-.2.31,0,.44l5.58,3.22m-4.55,2.63-5.58-3.22a.87.87,0,0,0-.77,0l-5.94,3.43c-.2.12-.19.32,0,.45l5.58,3.22a.87.87,0,0,0,.77,0l5.94-3.43c.2-.11.19-.31,0-.44m19.13,9.33L150,286a.84.84,0,0,0-.77,0l-7.43,4.29c-.2.12-.19.32,0,.44l5.58,3.22a.84.84,0,0,0,.77,0l7.42-4.29c.21-.12.2-.31,0-.44M145,286.14l-5.58-3.22a.84.84,0,0,0-.77,0l-4.82,2.79c-.21.12-.2.31,0,.44l5.58,3.22a.84.84,0,0,0,.77,0l4.83-2.79c.2-.12.19-.31,0-.44m41.38,4.18,4.82-2.79c.21-.12.19-.32,0-.44l-5.57-3.23a.87.87,0,0,0-.77,0L180,286.63c-.2.12-.19.32,0,.45l5.58,3.22a.87.87,0,0,0,.77,0m5.14-28.74-4.82,2.78c-.2.12-.19.32,0,.45l5.58,3.22a.87.87,0,0,0,.77,0l4.82-2.78c.21-.12.19-.32,0-.45l-5.58-3.22a.84.84,0,0,0-.77,0m-7,4.07-4.82,2.78c-.21.12-.19.32,0,.45l5.58,3.22a.87.87,0,0,0,.77,0l4.82-2.78c.2-.12.19-.32,0-.45l-5.58-3.22a.87.87,0,0,0-.77,0m28.21-16.29-4.83,2.79c-.2.12-.19.32,0,.44l5.58,3.22a.84.84,0,0,0,.77,0L219,253c.21-.11.2-.31,0-.44l-5.58-3.22a.87.87,0,0,0-.77,0m-14.1,8.14-4.83,2.79c-.2.12-.19.32,0,.44l5.58,3.23a.87.87,0,0,0,.77,0l4.82-2.78c.21-.12.19-.32,0-.45l-5.57-3.22a.87.87,0,0,0-.77,0m7.05-4.07-4.83,2.79c-.2.12-.19.32,0,.44l5.58,3.22a.84.84,0,0,0,.77,0l4.82-2.78c.21-.12.2-.32,0-.45l-5.58-3.22a.87.87,0,0,0-.77,0m-28.21,16.29-4.82,2.78c-.21.12-.19.32,0,.45l5.57,3.22a.87.87,0,0,0,.77,0l4.83-2.79c.2-.12.19-.32,0-.44l-5.58-3.23a.87.87,0,0,0-.77,0m-7,4.07-4.82,2.78c-.21.12-.2.32,0,.45l5.58,3.22a.87.87,0,0,0,.77,0l4.83-2.79c.2-.12.19-.32,0-.44l-5.58-3.22a.84.84,0,0,0-.77,0m25.48,1.85,4.82-2.78c.21-.12.2-.32,0-.45L195,269.19a.87.87,0,0,0-.77,0L189.43,272c-.2.12-.19.32,0,.45l5.58,3.22a.87.87,0,0,0,.77,0m-7.05,4.07,4.82-2.78c.21-.12.2-.32,0-.44L188,273.26a.87.87,0,0,0-.77,0L182.38,276c-.2.12-.19.32,0,.45L188,279.7a.84.84,0,0,0,.77,0m-7,4.08,4.82-2.79c.21-.12.2-.32,0-.44l-5.57-3.22a.84.84,0,0,0-.77,0l-4.83,2.78c-.2.12-.19.32,0,.45l5.58,3.22a.87.87,0,0,0,.77,0m-18.43-5.93-4.82,2.79c-.21.11-.2.31,0,.44l5.58,3.22a.84.84,0,0,0,.77,0l4.83-2.79c.2-.12.19-.32,0-.44l-5.58-3.22a.84.84,0,0,0-.77,0m10.61,10a.84.84,0,0,0,.77,0l4.82-2.79c.21-.12.19-.32,0-.44l-5.58-3.22a.82.82,0,0,0-.76,0l-4.83,2.79c-.2.11-.19.31,0,.44l5.58,3.22m52.85-46.62L221.92,244c-.21.11-.2.31,0,.44l5.58,3.22a.84.84,0,0,0,.77,0l4.83-2.79c.2-.12.19-.32,0-.44l-5.58-3.22a.84.84,0,0,0-.77,0m61.82-19.59a.84.84,0,0,0,.77,0l4.83-2.79c.2-.12.19-.31,0-.44l-5.58-3.22a.84.84,0,0,0-.77,0L283,218c-.21.12-.2.32,0,.44l5.58,3.22m-68.87,23.66-4.82,2.79c-.21.12-.2.32,0,.44l5.58,3.22a.84.84,0,0,0,.77,0l4.83-2.79c.2-.12.19-.31,0-.44l-5.58-3.22a.84.84,0,0,0-.77,0m53.07-30.64-4.82,2.79c-.21.12-.2.31,0,.44l5.58,3.22a.84.84,0,0,0,.77,0l4.83-2.79c.2-.12.19-.31,0-.44l-5.58-3.22a.84.84,0,0,0-.77,0m16.36-9,13.55,7.82a.87.87,0,0,0,.77,0l4.82-2.79c.21-.12.19-.32,0-.44l-13.55-7.83a.87.87,0,0,0-.77,0l-4.82,2.78c-.2.12-.19.32,0,.45m-1.49.86a.84.84,0,0,0-.77,0L282,209.3c-.21.11-.19.31,0,.44l5.58,3.22a.85.85,0,0,0,.76,0l4.83-2.79c.2-.12.19-.32,0-.44l-5.58-3.22m-6.27,10.52,4.83-2.79c.2-.12.19-.32,0-.44l-5.58-3.22a.84.84,0,0,0-.77,0L275,213.37c-.21.11-.2.31,0,.44l5.58,3.22a.84.84,0,0,0,.77,0m15,.53,4.83-2.79c.2-.12.19-.32,0-.44l-5.58-3.22a.84.84,0,0,0-.77,0L290,213.9c-.21.11-.19.31,0,.44l5.57,3.22a.84.84,0,0,0,.77,0M209.91,267.5l4.83-2.78c.2-.12.19-.32,0-.45l-5.58-3.22a.87.87,0,0,0-.77,0l-4.82,2.79c-.21.12-.2.32,0,.44l5.58,3.23a.87.87,0,0,0,.77,0m69.75-65.58a.87.87,0,0,0-.77,0l-4.82,2.78c-.21.12-.19.32,0,.45l5.58,3.22a.82.82,0,0,0,.76,0l4.83-2.78c.2-.12.19-.32,0-.45l-5.58-3.22m-44.32,41.7,4.83-2.79c.2-.12.19-.32,0-.44l-5.58-3.22a.84.84,0,0,0-.77,0L229,239.94c-.21.11-.19.31,0,.44l5.57,3.22a.87.87,0,0,0,.77,0M271.84,206,267,208.77c-.21.11-.19.31,0,.44l5.57,3.22a.87.87,0,0,0,.77,0l4.83-2.79c.2-.12.19-.32,0-.44L272.61,206a.84.84,0,0,0-.77,0m-15.58,9-4.83,2.78c-.2.12-.19.32,0,.45l5.58,3.22a.87.87,0,0,0,.77,0l4.82-2.79c.21-.12.19-.32,0-.44L257,215a.85.85,0,0,0-.76,0m8.53-4.93L260,212.84c-.21.11-.2.31,0,.44l5.58,3.22a.84.84,0,0,0,.77,0l4.83-2.79c.2-.12.19-.32,0-.44l-5.58-3.22a.84.84,0,0,0-.77,0m-61.93,61.52,4.83-2.78c.2-.12.19-.32,0-.45l-5.58-3.22a.87.87,0,0,0-.77,0l-4.82,2.78c-.21.12-.2.32,0,.45l5.58,3.22a.87.87,0,0,0,.77,0m-36-4.95L162,269.4c-.2.12-.19.32,0,.45l5.58,3.22a.87.87,0,0,0,.77,0l4.82-2.78c.21-.12.19-.32,0-.45l-5.58-3.22a.85.85,0,0,0-.76,0m7.05-4.07L169,265.33c-.2.12-.19.32,0,.45l5.58,3.22a.87.87,0,0,0,.77,0l4.82-2.78c.21-.12.2-.32,0-.45l-5.57-3.22a.84.84,0,0,0-.77,0m7-4.07-4.83,2.78c-.2.12-.19.32,0,.44l5.58,3.23a.87.87,0,0,0,.77,0l4.82-2.78c.21-.12.2-.32,0-.45l-5.58-3.22a.84.84,0,0,0-.77,0m14.1-8.15-4.82,2.79c-.21.12-.2.32,0,.44l5.58,3.22a.84.84,0,0,0,.77,0L201.4,254c.2-.11.19-.31,0-.44l-5.58-3.22a.84.84,0,0,0-.77,0m-35.26,20.36-4.82,2.78c-.21.12-.19.32,0,.45l5.58,3.22a.82.82,0,0,0,.76,0l4.83-2.78c.2-.12.19-.32,0-.45l-5.58-3.22a.87.87,0,0,0-.77,0M188,254.4l-4.83,2.79c-.2.12-.19.32,0,.44l5.58,3.22a.84.84,0,0,0,.77,0l4.82-2.79c.21-.11.2-.31,0-.44l-5.58-3.22a.87.87,0,0,0-.77,0m-35.26,20.36-4.82,2.78c-.21.12-.19.32,0,.45l5.57,3.22a.87.87,0,0,0,.77,0l4.83-2.79c.2-.12.19-.32,0-.44l-5.58-3.23a.87.87,0,0,0-.77,0m18.76,23.68a.82.82,0,0,0,.76,0l4.83-2.79c.2-.12.19-.32,0-.44L171.45,292a.84.84,0,0,0-.77,0l-4.82,2.79c-.21.12-.19.31,0,.44l5.58,3.22m7.82-4.05,4.82-2.79c.21-.12.19-.32,0-.44l-5.58-3.22a.84.84,0,0,0-.77,0l-4.82,2.79c-.2.11-.19.31,0,.44l5.58,3.22a.84.84,0,0,0,.77,0m-22.28-6a.84.84,0,0,0,.77,0l4.82-2.79c.21-.12.2-.32,0-.44L157,282a.84.84,0,0,0-.77,0l-4.83,2.79c-.2.12-.19.31,0,.44l5.58,3.22m-11.35-9.55-4.82,2.79c-.21.11-.2.31,0,.44l5.58,3.22a.84.84,0,0,0,.77,0l4.83-2.79c.2-.12.19-.32,0-.44l-5.58-3.22a.84.84,0,0,0-.77,0m21.18,13.08a.84.84,0,0,0,.77,0l4.82-2.79c.2-.12.19-.32,0-.44l-5.58-3.22a.84.84,0,0,0-.77,0l-4.82,2.79c-.21.12-.19.31,0,.44l5.58,3.22m35.23-45.65-4.82,2.79c-.21.12-.2.31,0,.44l5.58,3.22a.84.84,0,0,0,.77,0l4.83-2.79c.2-.12.19-.31,0-.44l-5.58-3.22a.84.84,0,0,0-.77,0m7.05-4.07L204.3,245c-.21.11-.19.31,0,.44l5.57,3.22a.84.84,0,0,0,.77,0l4.83-2.79c.2-.12.19-.32,0-.44l-5.58-3.22a.84.84,0,0,0-.77,0m36,5,10.76-6.22c.21-.12.19-.31,0-.44l-13.54-7.82a.84.84,0,0,0-.77,0L236,235.86c-.21.12-.19.32,0,.45l7.17,4.14c.22.13.23.33,0,.44l-4.46,2.58c-.2.11-.19.31,0,.44l5.58,3.22a.87.87,0,0,0,.77,0m6.5-13,4.83-2.79c.2-.12.19-.31,0-.44l-5.58-3.22a.84.84,0,0,0-.77,0l-4.82,2.79c-.21.12-.19.31,0,.44l5.57,3.22a.84.84,0,0,0,.77,0M217,263.43l4.83-2.78c.2-.12.19-.32,0-.45L216.18,257a.87.87,0,0,0-.77,0l-4.82,2.79c-.21.12-.19.32,0,.44l5.57,3.22a.84.84,0,0,0,.77,0m7.06-4.07,4.82-2.79c.21-.11.19-.31,0-.44l-5.58-3.22a.84.84,0,0,0-.77,0l-4.82,2.79c-.21.12-.19.32,0,.44l5.58,3.22a.84.84,0,0,0,.77,0m7-4.07,4.82-2.79c.21-.12.19-.31,0-.44l-5.57-3.22a.84.84,0,0,0-.77,0l-4.83,2.79c-.2.12-.19.31,0,.44l5.58,3.22a.84.84,0,0,0,.77,0m7.05-4.07,4.82-2.79c.21-.12.2-.32,0-.44l-5.58-3.22a.84.84,0,0,0-.77,0l-4.83,2.79c-.2.11-.19.31,0,.44l5.58,3.22a.84.84,0,0,0,.77,0m-22-13.1-4.82,2.78c-.21.12-.19.32,0,.45l5.58,3.22a.87.87,0,0,0,.77,0l4.82-2.79c.21-.12.19-.32,0-.44l-5.58-3.22a.84.84,0,0,0-.77,0m7.06-4.07-4.83,2.78c-.2.12-.19.32,0,.45L224,240.5a.87.87,0,0,0,.77,0l4.82-2.79c.21-.12.19-.32,0-.44L224,234.06a.87.87,0,0,0-.77,0m18.92-10.93-4.82,2.79c-.21.11-.19.31,0,.44l5.57,3.22a.84.84,0,0,0,.77,0l4.83-2.79c.2-.12.19-.32,0-.44l-5.58-3.22a.84.84,0,0,0-.77,0m-8.53,4.93-8.17,4.71c-.2.12-.19.32,0,.45l5.58,3.22a.84.84,0,0,0,.77,0l8.16-4.71c.21-.12.2-.32,0-.44l-5.58-3.23a.87.87,0,0,0-.77,0m15.58-9-4.82,2.79c-.21.11-.19.31,0,.44L250,225.5a.85.85,0,0,0,.76,0l4.83-2.79c.2-.12.19-.32,0-.44L250,219.07a.84.84,0,0,0-.77,0m9.53,11.07,4.82-2.79c.2-.12.19-.32,0-.44l-5.58-3.22a.84.84,0,0,0-.77,0l-4.82,2.79c-.21.11-.19.31,0,.44L258,230.1a.86.86,0,0,0,.78,0" transform="translate(-24.73 -9.68)"/><path class="cls-10" d="M234.77,283.5,282.38,256a5.72,5.72,0,0,1,5.19,0l27.3,15.76c1.44.83,1.44,2.17,0,3l-47.61,27.49a5.72,5.72,0,0,1-5.19,0l-27.3-15.76c-1.44-.83-1.44-2.18,0-3" transform="translate(-24.73 -9.68)"/><path class="cls-7" d="M322.32,151.31h0l-.06,0-8.13-4.68c-.47-.21-1.16,0-2,.62-7.56,5.79-17.72,7.58-26,4.94a20.65,20.65,0,0,1-1.52-1.58l-.15-.17h0a3.19,3.19,0,0,0-.84-.69l-.14-.08L275.31,145c-.93-.44-1.77,0-2.33,1.38-7.86,19.53-24.61,39.32-35.78,44.27a6.32,6.32,0,0,0-2.2,1.64,4.69,4.69,0,0,0-1.24,3.2l1.61,43.85c0,12.67,5.35,26,16.26,32.56l8.42,4.86.15.08a29.62,29.62,0,0,0,14.92,3.79c1.17,0,2.36-.05,3.59-.17a12,12,0,0,0,6.36-3.18C309.48,252,321.35,217.9,321.35,199L323,153.15c0-1-.2-1.6-.64-1.84" transform="translate(-24.73 -9.68)"/><path class="cls-7" d="M323,153.15,321.35,199c0,18.88-11.87,53-36.28,78.21a12,12,0,0,1-6.36,3.18c-1.23.12-2.42.17-3.59.17a29.62,29.62,0,0,1-14.92-3.79l-.15-.08-.29-.18C248.85,270,243.5,256.64,243.5,244l-1.61-43.85a4.69,4.69,0,0,1,1.24-3.2,6.32,6.32,0,0,1,2.2-1.64c11.17-4.95,27.92-24.74,35.78-44.27.56-1.38,1.41-1.83,2.34-1.39l.14.08a3.19,3.19,0,0,1,.84.69h0l.15.17c8.34,9.71,24.74,9.7,35.69,1.32.83-.63,1.52-.83,2-.62l.06,0h0c.44.24.68.85.64,1.84" transform="translate(-24.73 -9.68)"/><path class="cls-8" d="M293.73,153.33a26.22,26.22,0,0,1-7.58-1.18v0a25.91,25.91,0,0,0,7.59,1.2m28.54-2.08h0l-8.09-4.66a.87.87,0,0,0-.4-.08,2.84,2.84,0,0,0-1.59.7,30.42,30.42,0,0,1-3.41,2.25,29.29,29.29,0,0,0,3.42-2.26,2.79,2.79,0,0,1,1.58-.7,1.07,1.07,0,0,1,.41.08l8.12,4.68m-13.54-1.8h0" transform="translate(-24.73 -9.68)"/><path class="cls-12" d="M302.18,158a23.32,23.32,0,0,1-16-5.85,26.22,26.22,0,0,0,7.58,1.18h.33a30.15,30.15,0,0,0,14.67-3.88h0a30.42,30.42,0,0,0,3.41-2.25,2.84,2.84,0,0,1,1.59-.7.87.87,0,0,1,.4.08l8.09,4.66a.86.86,0,0,0-.36-.07,2.79,2.79,0,0,0-1.58.7A30.13,30.13,0,0,1,302.18,158" transform="translate(-24.73 -9.68)"/><path class="cls-14" d="M234.84,192.43c0-.07.11-.13.17-.2l.11-.13-.12.14c-.05.06-.11.12-.16.19" transform="translate(-24.73 -9.68)"/><path class="cls-8" d="M259.65,169.69h0A107.89,107.89,0,0,0,273,146.32c.43-1,1-1.54,1.66-1.54a1.53,1.53,0,0,1,.67.16l8.15,4.67-.06,0L275.31,145a1.55,1.55,0,0,0-.67-.17c-.66,0-1.23.51-1.66,1.55a108.06,108.06,0,0,1-13.33,23.36" transform="translate(-24.73 -9.68)"/><path class="cls-15" d="M250.15,180.81a104.36,104.36,0,0,0,9.5-11.12h0a104.36,104.36,0,0,1-9.5,11.12h0" transform="translate(-24.73 -9.68)"/><path class="cls-14" d="M235.7,191.55a6,6,0,0,1,1.51-1c3.84-1.7,8.36-5.17,12.94-9.78h0c-4.58,4.61-9.1,8.08-13,9.79a6.23,6.23,0,0,0-1.5,1" transform="translate(-24.73 -9.68)"/><path class="cls-12" d="M242.57,197.68,234.46,193a5,5,0,0,1,.38-.56c0-.07.11-.13.16-.19l.12-.14.25-.24h0l.14-.14.14-.13,0,0a6.23,6.23,0,0,1,1.5-1c3.85-1.71,8.37-5.18,13-9.79a104.36,104.36,0,0,0,9.5-11.12h0A108.06,108.06,0,0,0,273,146.33c.43-1,1-1.55,1.66-1.55a1.55,1.55,0,0,1,.67.17l8.09,4.64a1.43,1.43,0,0,0-1.91.68,4.24,4.24,0,0,0-.38.74,103.58,103.58,0,0,1-9.63,18.08c-8.24,12.45-18.5,22.79-26.14,26.18a6.32,6.32,0,0,0-2.2,1.64,4.58,4.58,0,0,0-.34.43l-.23.34" transform="translate(-24.73 -9.68)"/><path class="cls-12" d="M242.58,197.68h0l.23-.34a3.26,3.26,0,0,0-.22.34m28.9-28.59A103.58,103.58,0,0,0,281.11,151a4.24,4.24,0,0,1,.38-.74,4.51,4.51,0,0,0-.37.73,103.72,103.72,0,0,1-9.64,18.09" transform="translate(-24.73 -9.68)"/><polyline class="cls-7" points="210.64 182.17 210.78 182.04 210.64 182.18 210.64 182.17"/><polyline class="cls-16" points="210.64 182.18 210.64 182.17 210.78 182.04 210.64 182.18"/><polyline class="cls-17" points="235.37 267.06 235.32 267.04 231.31 264.71 235.32 267.03 235.37 267.06"/><path class="cls-16" d="M260.11,276.74h0l-.05,0-4-2.32-4.4-2.55c-10.91-6.51-16.26-19.89-16.26-32.56l-1.61-43.85a4.35,4.35,0,0,1,.69-2.44l8.11,4.69a4.42,4.42,0,0,0-.68,2.44L243.5,244c0,12.67,5.35,26,16.26,32.56l.29.18.06,0" transform="translate(-24.73 -9.68)"/><path class="cls-16" d="M260.21,276.78l-.1,0-.06,0-.29-.18C248.85,270,243.5,256.64,243.5,244l-1.61-43.85a4.42,4.42,0,0,1,.68-2.44h0a4.38,4.38,0,0,0-.68,2.43L243.51,244c0,12.67,5.35,26,16.26,32.56l.29.18.15.08" transform="translate(-24.73 -9.68)"/><path class="cls-11" d="M288.93,236.44l-13,7.5,2-23.51c-1.55-.82-2.54-2.84-2.54-5.75,0-5.17,3.15-11.19,7-13.43s7,.14,7,5.31a17.58,17.58,0,0,1-2.55,8.69l2,21.19Z" transform="translate(-24.73 -9.68)"/><polygon class="cls-9" points="264.19 226.76 252.42 219.96 251.2 234.26 264.19 226.76 264.19 226.76"/><path class="cls-9" d="M282.43,201.25c-2.54,1.47-4.76,4.55-6,8l10.48,6h0a17.58,17.58,0,0,0,2.55-8.69c0-5.17-3.15-7.55-7-5.31Z" transform="translate(-24.73 -9.68)"/><path class="cls-7" d="M136.5,368.44a13.73,13.73,0,0,1,12.42,0c3.43,2,3.43,5.19,0,7.17a13.73,13.73,0,0,1-12.42,0c-3.43-2-3.43-5.19,0-7.17M119.86,373v3.9c0,4.6,3,9.19,9.08,12.7,9.14,5.27,22.57,6.56,33.81,3.87l10.44,6,8-1.82,5.48,3.17.3,6.61,2.95,1.71,7.4.65,5.33,3v3.73l6.68,3.85h17l6.09-3.51v-3.94L178.09,385.5a12.5,12.5,0,0,0,3.76-8.54V373c-.81-3.82-4-5.79-9.06-8.72-12.11-7-31.74-7-43.85,0-5.44,3.15-8.53,4.61-9.08,8.72" transform="translate(-24.73 -9.68)"/><path class="cls-18" d="M226.34,420.38v-3.94h-17v3.94l-6.68-3.85V412.8l-5.33-3v-3.95l-7.4-.65v3.95L187,407.47v-3.94l-.3-6.62v3.95l-5.48-3.17v-3.94l-8,1.81v3.95l-10.44-6a51.46,51.46,0,0,1-11.9,1.37c-7.93,0-15.86-1.75-21.91-5.24s-9.08-8.09-9.08-12.67V373h0c0,4.58,3,9.17,9.08,12.66a38,38,0,0,0,10.77,4v3.93a52.53,52.53,0,0,0,23-.16v-3.94c-.78.18-1.58.35-2.38.5.8-.15,1.6-.32,2.38-.5l10.44,6,8-1.81,5.48,3.16.3,6.62,2.95,1.7,7.4.65,5.78,3.22-.45,3.48,6.68,3.86h17v3.94" transform="translate(-24.73 -9.68)"/><path class="cls-18" d="M180.18,382.76l-2.09-1.21a12.48,12.48,0,0,0,3.76-8.48V377a11.35,11.35,0,0,1-1.67,5.8" transform="translate(-24.73 -9.68)"/><path class="cls-18" d="M150.81,370.05a6.16,6.16,0,0,0-1.89-1.61,13.69,13.69,0,0,0-12.42,0,6.23,6.23,0,0,0-1.88,1.61c-1.35-1.84-.72-4.05,1.88-5.56a13.77,13.77,0,0,1,12.42,0c2.61,1.51,3.24,3.72,1.89,5.56" transform="translate(-24.73 -9.68)"/><path class="cls-7" d="M136.5,364.49a13.73,13.73,0,0,1,12.42,0c3.43,2,3.43,5.19,0,7.17a13.73,13.73,0,0,1-12.42,0c-3.43-2-3.43-5.19,0-7.17m-7.56,21.17c9.14,5.28,22.57,6.57,33.81,3.88l10.44,6,8-1.81,5.48,3.16.3,6.62,2.95,1.7,7.4.65,5.78,3.22-.45,3.48,6.68,3.86h17l6.09-3.51-54.34-31.38c6.4-6.79,4.64-15.46-5.3-21.2-12.11-7-31.74-7-43.85,0s-12.1,18.32,0,25.31" transform="translate(-24.73 -9.68)"/><path class="cls-19" d="M150.86,387.47c-7.68,0-14.86-1.7-20.2-4.78-4.68-2.7-7.36-6.23-7.36-9.68s2.68-7,7.36-9.69c5.34-3.08,12.52-4.78,20.2-4.78s14.87,1.7,20.21,4.78c4.68,2.71,7.36,6.24,7.36,9.69s-2.68,7-7.36,9.68c-5.34,3.08-12.52,4.78-20.21,4.78m0-27.55c-7.44,0-14.38,1.63-19.51,4.59-4.25,2.45-6.68,5.55-6.68,8.5s2.43,6,6.68,8.49c5.13,3,12.07,4.6,19.51,4.6s14.38-1.64,19.52-4.6c4.24-2.45,6.68-5.55,6.68-8.49s-2.44-6.05-6.68-8.5c-5.14-3-12.07-4.59-19.52-4.59" transform="translate(-24.73 -9.68)"/><path class="cls-20" d="M150.87,394.84a51.5,51.5,0,0,1-11.16-1.2v-3.93a51.94,51.94,0,0,0,11.14,1.19,52.67,52.67,0,0,0,9.52-.86c.8-.15,1.6-.32,2.38-.5v3.94a51.28,51.28,0,0,1-11.88,1.36" transform="translate(-24.73 -9.68)"/><path class="cls-18" d="M150.85,390.9a51.94,51.94,0,0,1-11.14-1.19h0a51.5,51.5,0,0,0,11.16,1.2,52.45,52.45,0,0,0,9.5-.86,52.67,52.67,0,0,1-9.52.86" transform="translate(-24.73 -9.68)"/><polyline class="cls-20" points="148.46 389.83 148.46 385.89 156.48 384.07 156.48 388.02 148.46 389.83"/><polyline class="cls-20" points="162.25 397.8 162.25 397.8 161.96 391.18 161.96 387.23 162.25 393.85 162.25 397.8"/><polyline class="cls-20" points="172.61 400.15 172.61 400.15 165.2 399.5 165.2 395.55 172.61 396.2 172.61 400.15"/><polyline class="cls-20" points="201.61 410.71 184.62 410.71 184.62 406.76 201.61 406.76 201.61 410.71"/><polyline class="cls-21" points="201.61 410.71 201.61 406.76 204.28 405.22 204.28 405.22 204.28 406.92 205.75 406.07 205.75 404.37 207.7 403.25 207.7 407.19 201.61 410.71"/><path class="cls-16" d="M226.34,416.44,229,414.9h0l-2.67,1.54m4.14-2.39v0l2-1.1-2,1.12" transform="translate(-24.73 -9.68)"/><polyline class="cls-7" points="205.75 404.35 204.28 405.22 204.28 406.92 205.75 406.07 205.75 404.35"/><polyline class="cls-16" points="204.28 405.22 204.28 405.22 204.28 405.22 151.5 374.75 151.5 373.03 150.02 373.9 151.5 373.03 205.75 404.35 204.28 405.22 204.28 405.22"/><polyline class="cls-22" points="204.28 405.22 204.28 405.22 204.28 405.22 204.28 405.22"/><polyline class="cls-23" points="204.28 405.22 204.28 405.22 204.28 405.22 204.28 405.22 204.28 405.22"/><polyline class="cls-16" points="205.75 406.07 204.28 405.22 204.28 405.22 204.28 405.22 205.75 404.35 205.75 406.07"/><polyline class="cls-16" points="151.5 374.75 150.02 373.9 151.5 374.75 151.5 374.75"/><polyline class="cls-23" points="151.5 374.75 150.02 373.9 151.5 373.03 151.5 374.75"/><path class="cls-24" d="M418.48,266.23c.7-26-1.39-32.29-8.32-37.06l-2.69,15.09s3.16,17.79,2.82,23.71c-.3,5.21-.8,11.72-2,15.92a3.21,3.21,0,0,1-1.38,1.79c-1.77,1.1-2.48,2.24-3.81,3.63-1,1.09-1.93,1.36-1.79,1.71a1.71,1.71,0,0,0,2.19.77,11.51,11.51,0,0,0,2.51-1.36,15.91,15.91,0,0,1-2.57,4.41c-2.47,3-2.58,4.9,2.42,5,3.13,0,5.63-1.91,8-8.81a56.31,56.31,0,0,0,2.2-7.75c1.2-6.83,2.34-12.81,2.46-17" transform="translate(-24.73 -9.68)"/><path class="cls-7" d="M404.32,227.19A10,10,0,0,1,415,232.61c2.9,5.19,3.62,14.13,3.95,23,0,0-5.78,4.82-12.7,2.45l-2-30.9" transform="translate(-24.73 -9.68)"/><path class="cls-25" d="M414.3,258.09c0-3.61-.09-7-.18-9.48-.29-7.56-.39-13.15-1.11-15.36-1-2.91-4.4-6.06-8.07-6.06-.21,0-.41,0-.62,0v0a12,12,0,0,1,1.73-.12,9.9,9.9,0,0,1,9,5.54c2.9,5.19,3.62,14.13,3.95,23a15.41,15.41,0,0,1-4.69,2.45" transform="translate(-24.73 -9.68)"/><path class="cls-10" d="M414.06,370.45c.53.2.66,1.2.74,3.19.06,1.5.38,4.13-1.38,4.66s-4.35.25-5.48-1.17c-1.41-1.77-2.37-3.33-4.38-5.49-1.75-1.87-3.64-3.63-4.34-6.26-.64-2.37-.11-3.4,1.51-4.09,2.23-1,5.74,2.15,7.48,2.64,1.51.42,5.32,6.32,5.85,6.52Z" transform="translate(-24.73 -9.68)"/><path class="cls-24" d="M414.06,368.6v2.45a6,6,0,0,1-6.18.16c-.1-.23-.64-3.49-.64-3.49l6.82.88Z" transform="translate(-24.73 -9.68)"/><path class="cls-10" d="M394.27,384.53s.7,2.13,1.08,4c.3,1.47.73,3.94.21,5.05s-2.54,1.83-5.66,1.81c-2,0-5.19,1.36-7.35,2.57s-6.88,1.74-9.24,1.46c-2.79-.33-5.67-1.94-6.12-3.09s.15-2.35,6.71-5.15c.06,0,9.12-3,12.29-6.47l8.08-.17Z" transform="translate(-24.73 -9.68)"/><path class="cls-24" d="M394.27,381.89s0,1.81,0,2.85-1.22,2.58-4.38,2.47c-2.23-.08-3.78-.68-3.7-2.51v-2.65l8.08-.16Z" transform="translate(-24.73 -9.68)"/><path class="cls-9" d="M415.65,336.17a66.49,66.49,0,0,0-2.89-12.73s.88-11,1.3-21.39c.45-11.25,0-25.38.18-28.19,0,0-36.29-7.34-36.93,5.66s1.43,46.09,1.86,51.8,1.42,10.77,2.6,20,4.42,30.71,4.42,30.71a8.56,8.56,0,0,0,8.08-.16s2.55-26,2.28-32.59a56.19,56.19,0,0,0-2.49-14.38s.68-10.72,1.29-20,1.25-13.81,1.39-17.86l.78-.39s.8,16.09,1.23,21.8,1.34,11.18,3,21.79c1.43,9.21,5.7,28.68,5.7,28.68,4.15,2.24,6.62-.3,6.62-.3s2.71-24.44,1.59-32.43" transform="translate(-24.73 -9.68)"/><path class="cls-10" d="M396.74,297s8.81-4.34,13.21-8.25c0,0-4.09,5.76-9.46,8.32,0,0-1.91,20-1.9,19.58L397.49,297l-.75,0Z" transform="translate(-24.73 -9.68)"/><polyline class="cls-24" points="364.18 213.4 366.32 225.22 377 224.44 374.76 211.04 364.18 213.4"/><path class="cls-7" d="M413,233.25c-1.06-3.21-5.14-6.71-9.22-5.95a120.14,120.14,0,0,0-17.86,4.46c-3.74,1.33-7.14,4.56-7.45,16.85,0,0-1.25,28.64-1.27,34.18a45.26,45.26,0,0,0,24.52,2.42c11.23-2.45,12.58-7.11,12.58-7.11s.14-20.6-.19-29.49c-.29-7.56-.39-13.15-1.11-15.36" transform="translate(-24.73 -9.68)"/><path class="cls-16" d="M394.12,285.94a46.53,46.53,0,0,1-16.91-3.15c0-3.45.5-15.84.87-24.72.37-.38,7.86-8.11,10-12.42a18.82,18.82,0,0,0,1.74-8c0-2.65-.59-5.12-1.9-6.58a133.24,133.24,0,0,1,15.88-3.79,6.4,6.4,0,0,1,1.15-.11c3.67,0,7.11,3.15,8.07,6.06.72,2.21.82,7.8,1.11,15.36.18,4.78.22,12.93.22,19.46,0,5.62,0,10,0,10s-1.35,4.66-12.58,7.11a36.52,36.52,0,0,1-7.61.73" transform="translate(-24.73 -9.68)"/><path class="cls-26" d="M380.67,208.7s-2.71,4.32-2.38,4.73,2.4.74,2.4.74l0-5.47Z" transform="translate(-24.73 -9.68)"/><path class="cls-24" d="M388.19,196.76c-5.65,1.32-7.23,3.85-7.56,12.88-.35,9.42.68,12.36,1.95,13.6.85.84,5.49.89,7.82.19,2.91-.87,9.48-3.37,12.48-8.17,3.52-5.66,4.31-13.23.33-16.24-5.59-4.24-12.72-2.8-15-2.26Z" transform="translate(-24.73 -9.68)"/><path class="cls-10" d="M380.69,199.11a11.57,11.57,0,0,0,5.25,4.19c1.09,1.23.49,6,2.4,6.8,0,0,.81-3.5,3.76-3.12s3.44,4.12,1.63,6.45-3.56,1.49-3.56,1.49.2,5,2.47,7.74c0,0,2.53.76,7.12-.33,2.82-.67,6.75-4.3,8.35-8.09,3.39-8,3.48-15.17-1.64-17.2-.63-3.65-3.55-5.22-6.85-5.9-7.1-1.47-11.68,3-17.15,2.58-3.13-.22-3.72,2.06-1.78,5.39Z" transform="translate(-24.73 -9.68)"/><path class="cls-10" d="M406.59,198.26l3.35-2.07a2,2,0,1,0-3.35,2.07Z" transform="translate(-24.73 -9.68)"/><path class="cls-24" d="M340.78,253c1.76.78,22.44,16.06,25.67,14.28s19.77-21.11,19.77-21.11a13.36,13.36,0,0,0,0-14.5s-5.31,1-8.08,5.18-14.77,19.23-14.77,19.23q-4.44-2.22-8.85-4.5c-2.43-1.26-4.85-2.51-7.23-3.86a9.32,9.32,0,0,1-1.86-1.15c-1.17-1.16-1-4-.95-5.48,0-.71,0-1.42.1-2.13.11-.87.27-3-1.29-2.32a1.89,1.89,0,0,0-.75.62,3.43,3.43,0,0,0-.56,1.07c-.3.92-.2,1.93-.47,2.86a.79.79,0,0,1-.2.37.69.69,0,0,1-.49.15c-2.28-.07-4.44-3.27-5.48-5a4.63,4.63,0,0,0-1.73-2c-1.25-.59-2.75.25-3.55,1.37a7.19,7.19,0,0,0-1.13,5,10,10,0,0,0,3,6.3,30.79,30.79,0,0,0,8.88,5.53" transform="translate(-24.73 -9.68)"/><path class="cls-7" d="M387.9,231.09c-2.28.26-6.07.43-9.78,4.64-4.34,4.91-10.06,12.94-10.06,12.94a12.66,12.66,0,0,0,10,9.42s7.83-8,10-12.44,2.52-11.58-.17-14.56" transform="translate(-24.73 -9.68)"/><path class="cls-25" d="M378.06,258.09a15.91,15.91,0,0,1-1.87-.49,12.58,12.58,0,0,1-7.8-7.82,7.62,7.62,0,0,1-.33-1.11s5.72-8,10.06-12.94c3.71-4.21,7.5-4.38,9.78-4.64,1.32,1.46,1.91,3.93,1.91,6.58a18.82,18.82,0,0,1-1.74,8c-2.13,4.31-9.62,12-10,12.42l0,0" transform="translate(-24.73 -9.68)"/></g></svg>